<svg width="242" height="75" viewBox="0 0 242 75" fill="none" xmlns="http://www.w3.org/2000/svg">
<path d="M8.32031 58H1.09375V15.7344H8.32031V58ZM0.507812 4.52344C0.507812 3.35156 0.859375 2.36198 1.5625 1.55469C2.29167 0.747396 3.35938 0.34375 4.76562 0.34375C6.17188 0.34375 7.23958 0.747396 7.96875 1.55469C8.69792 2.36198 9.0625 3.35156 9.0625 4.52344C9.0625 5.69531 8.69792 6.67188 7.96875 7.45312C7.23958 8.23438 6.17188 8.625 4.76562 8.625C3.35938 8.625 2.29167 8.23438 1.5625 7.45312C0.859375 6.67188 0.507812 5.69531 0.507812 4.52344ZM18.2031 36.5156C18.2031 29.9271 19.7266 24.6927 22.7734 20.8125C25.8203 16.9062 29.8568 14.9531 34.8828 14.9531C40.0391 14.9531 44.0625 16.776 46.9531 20.4219L47.3047 15.7344H53.9062V56.9844C53.9062 62.4531 52.2786 66.763 49.0234 69.9141C45.7943 73.0651 41.4453 74.6406 35.9766 74.6406C32.9297 74.6406 29.9479 73.9896 27.0312 72.6875C24.1146 71.3854 21.888 69.6016 20.3516 67.3359L24.1016 63C27.2005 66.8281 30.9896 68.7422 35.4688 68.7422C38.9844 68.7422 41.7188 67.7526 43.6719 65.7734C45.651 63.7943 46.6406 61.0078 46.6406 57.4141V53.7812C43.75 57.1146 39.8047 58.7812 34.8047 58.7812C29.8568 58.7812 25.8464 56.7891 22.7734 52.8047C19.7266 48.8203 18.2031 43.3906 18.2031 36.5156ZM25.4688 37.3359C25.4688 42.1016 26.4453 45.8516 28.3984 48.5859C30.3516 51.2943 33.0859 52.6484 36.6016 52.6484C41.1589 52.6484 44.5052 50.5781 46.6406 46.4375V27.1406C44.4271 23.1042 41.1068 21.0859 36.6797 21.0859C33.1641 21.0859 30.4167 22.4531 28.4375 25.1875C26.4583 27.9219 25.4688 31.9714 25.4688 37.3359ZM90.9375 58C90.5208 57.1667 90.1823 55.6823 89.9219 53.5469C86.5625 57.0365 82.5521 58.7812 77.8906 58.7812C73.724 58.7812 70.2995 57.6094 67.6172 55.2656C64.9609 52.8958 63.6328 49.901 63.6328 46.2812C63.6328 41.8802 65.2995 38.4688 68.6328 36.0469C71.9922 33.599 76.7057 32.375 82.7734 32.375H89.8047V29.0547C89.8047 26.5286 89.0495 24.5234 87.5391 23.0391C86.0286 21.5286 83.8021 20.7734 80.8594 20.7734C78.2812 20.7734 76.1198 21.4245 74.375 22.7266C72.6302 24.0286 71.7578 25.6042 71.7578 27.4531H64.4922C64.4922 25.3438 65.2344 23.3125 66.7188 21.3594C68.2292 19.3802 70.2604 17.8177 72.8125 16.6719C75.3906 15.526 78.2161 14.9531 81.2891 14.9531C86.1589 14.9531 89.974 16.1771 92.7344 18.625C95.4948 21.0469 96.9271 24.3932 97.0312 28.6641V48.1172C97.0312 51.9974 97.526 55.0833 98.5156 57.375V58H90.9375ZM78.9453 52.4922C81.2109 52.4922 83.3594 51.9062 85.3906 50.7344C87.4219 49.5625 88.8932 48.0391 89.8047 46.1641V37.4922H84.1406C75.2865 37.4922 70.8594 40.0833 70.8594 45.2656C70.8594 47.5312 71.6146 49.3021 73.125 50.5781C74.6354 51.8542 76.5755 52.4922 78.9453 52.4922ZM115.156 15.7344L115.352 20.4219C118.451 16.776 122.63 14.9531 127.891 14.9531C133.802 14.9531 137.826 17.2188 139.961 21.75C141.367 19.7188 143.19 18.0781 145.43 16.8281C147.695 15.5781 150.365 14.9531 153.438 14.9531C162.708 14.9531 167.422 19.862 167.578 29.6797V58H160.352V30.1094C160.352 27.0885 159.661 24.8359 158.281 23.3516C156.901 21.8411 154.583 21.0859 151.328 21.0859C148.646 21.0859 146.419 21.8932 144.648 23.5078C142.878 25.0964 141.849 27.2448 141.562 29.9531V58H134.297V30.3047C134.297 24.1589 131.289 21.0859 125.273 21.0859C120.534 21.0859 117.292 23.1042 115.547 27.1406V58H108.32V15.7344H115.156ZM196.055 58.7812C190.326 58.7812 185.664 56.9062 182.07 53.1562C178.477 49.3802 176.68 44.3411 176.68 38.0391V36.7109C176.68 32.5182 177.474 28.7812 179.062 25.5C180.677 22.1927 182.917 19.6146 185.781 17.7656C188.672 15.8906 191.797 14.9531 195.156 14.9531C200.651 14.9531 204.922 16.763 207.969 20.3828C211.016 24.0026 212.539 29.1849 212.539 35.9297V38.9375H183.906C184.01 43.1042 185.221 46.4766 187.539 49.0547C189.883 51.6068 192.852 52.8828 196.445 52.8828C198.997 52.8828 201.159 52.362 202.93 51.3203C204.701 50.2786 206.25 48.8984 207.578 47.1797L211.992 50.6172C208.451 56.0599 203.138 58.7812 196.055 58.7812ZM195.156 20.8906C192.24 20.8906 189.792 21.9583 187.812 24.0938C185.833 26.2031 184.609 29.1719 184.141 33H205.312V32.4531C205.104 28.7812 204.115 25.9427 202.344 23.9375C200.573 21.9062 198.177 20.8906 195.156 20.8906ZM241.367 22.2188C240.273 22.0365 239.089 21.9453 237.812 21.9453C233.073 21.9453 229.857 23.9635 228.164 28V58H220.938V15.7344H227.969L228.086 20.6172C230.456 16.8411 233.815 14.9531 238.164 14.9531C239.57 14.9531 240.638 15.1354 241.367 15.5V22.2188Z" fill="black"/>
</svg>
