<svg width="268" height="83" viewBox="0 0 268 83" fill="none" xmlns="http://www.w3.org/2000/svg">
<path d="M3.6 25.7C3.66667 24.3667 4.63333 23.2 6.5 22.2C8.36667 21.1333 10.2333 20.6 12.1 20.6C13.1667 20.6 14.0333 20.8333 14.7 21.3C15.3667 21.7 15.6667 22.3667 15.6 23.3L12.7 77.6C12.6333 79 11.6667 80.2333 9.8 81.3C7.93333 82.3 6.06667 82.8 4.2 82.8C1.73333 82.8 0.533333 81.8333 0.6 79.9L3.6 25.7ZM3.4 12.5C3.26667 13.4333 3.5 14.1333 4.1 14.6C4.76667 15.0667 5.63333 15.3 6.7 15.3C8.5 15.3 10.3333 14.8 12.2 13.8C14.0667 12.8 15.1 11.6 15.3 10.2C15.8333 6.86666 16.2 4.36666 16.4 2.7C16.6667 1.03333 15.6333 0.199993 13.3 0.199993C11.5 0.199993 9.63333 0.699995 7.7 1.7C5.76667 2.7 4.73333 3.83333 4.6 5.1L3.4 12.5ZM65.3172 44.3C65.3839 44.3667 65.4172 44.4667 65.4172 44.6C65.8839 48.8 66.1172 53.3333 66.1172 58.2C66.1172 63.6 65.7839 68.7667 65.1172 73.7C64.9172 75.0333 63.8839 76.2333 62.0172 77.3C60.1505 78.3 58.3172 78.8 56.5172 78.8C55.4505 78.8 54.6172 78.6 54.0172 78.2C53.4172 77.7333 53.1505 77.0333 53.2172 76.1C53.8839 69.9667 54.2172 64.5333 54.2172 59.8C52.1505 65.0667 49.3505 69.5333 45.8172 73.2C42.2839 76.8 38.1839 78.6 33.5172 78.6C32.5172 78.6 31.5172 78.5 30.5172 78.3C26.1839 77.5667 23.0839 75.6 21.2172 72.4C19.3505 69.1333 18.4172 65.1333 18.4172 60.4C18.4172 55.7333 19.1839 50.6667 20.7172 45.2C21.9172 41.0667 23.6839 37.1 26.0172 33.3C28.4172 29.4333 31.3172 26.2667 34.7172 23.8C38.1172 21.3333 41.8505 20.1 45.9172 20.1C49.3839 20.1 51.9172 20.7667 53.5172 22.1C55.1172 23.4333 55.9172 25.2 55.9172 27.4C55.9172 30.1333 54.9172 33.1667 52.9172 36.5C50.9172 39.7667 48.7839 42.2667 46.5172 44C45.8505 44.4667 44.9505 44.8667 43.8172 45.2C42.6839 45.4667 41.5839 45.6 40.5172 45.6C39.3172 45.6 38.3505 45.4333 37.6172 45.1C36.8839 44.7667 36.5172 44.3 36.5172 43.7C36.5172 42.8333 37.1839 41.8333 38.5172 40.7C39.3839 39.9667 40.5505 38.4 42.0172 36C43.5505 33.5333 44.3172 31.6 44.3172 30.2C44.3172 28.9333 43.6172 28.3 42.2172 28.3C40.2172 28.3 37.8505 31.3 35.1172 37.3C33.5839 40.3 32.4505 43.5667 31.7172 47.1C30.7839 51.3667 30.3172 55.3 30.3172 58.9C30.3172 65.3667 32.0839 68.9333 35.6172 69.6C37.0172 69.8 38.3839 68.7667 39.7172 66.5C41.1172 64.1667 42.3172 61.4333 43.3172 58.3C42.4505 58.7667 41.1505 59.4 39.4172 60.2C38.3505 60.6667 37.1839 60.9 35.9172 60.9C34.5839 60.9 33.5839 60.5667 32.9172 59.9C32.5172 59.3667 32.3172 58.8667 32.3172 58.4C32.3172 57.8 32.4839 57.2333 32.8172 56.7C33.2172 56.1 33.6839 55.6333 34.2172 55.3C42.6839 49.5 50.7505 44.8667 58.4172 41.4C59.0172 41.1333 59.7505 41 60.6172 41C61.9505 41 63.1172 41.3333 64.1172 42C65.1172 42.6 65.5172 43.3667 65.3172 44.3ZM89.6219 49.1L88.8219 51.1L95.8219 57L95.1219 54.1C94.6552 52.2333 93.7219 48.2667 92.3219 42.2L89.6219 49.1ZM101.022 19.9C101.955 25.7 103.122 31.6 104.522 37.6C105.989 43.5333 107.755 50.3667 109.822 58.1C111.755 65.4333 113.022 70.3 113.622 72.7C113.689 72.9 113.722 73.2 113.722 73.6C113.722 75.2 112.822 76.6 111.022 77.8C109.222 78.9333 107.355 79.5 105.422 79.5C103.822 79.5 102.589 79.0667 101.722 78.2C99.7885 76.1333 97.7552 74.1667 95.6219 72.3C93.4885 70.4333 90.6885 68.1333 87.2219 65.4L83.9219 62.7C81.1219 68.7 78.9552 73.1333 77.4219 76C76.9552 77 75.7219 77.9333 73.7219 78.8C71.7885 79.6 69.9885 80 68.3219 80C66.4552 80 65.5219 79.4 65.5219 78.2C65.5219 77.8667 65.6219 77.4667 65.8219 77C67.8219 72.0667 70.1885 66.4 72.9219 60L75.0219 54.9C73.3552 53.2333 72.5219 52.4 72.5219 52.4C72.0552 51.9333 71.8219 51.4 71.8219 50.8C71.8219 49.6667 72.5552 48.6 74.0219 47.6C75.4885 46.5333 77.1219 45.8333 78.9219 45.5C82.1219 37.8333 85.1219 30.0333 87.9219 22.1C88.1885 21.1667 89.0219 20.3667 90.4219 19.7C91.8885 18.9667 93.4219 18.5 95.0219 18.3C96.1552 17.9667 97.1219 17.8 97.9219 17.8C99.7885 17.8 100.822 18.5 101.022 19.9ZM163.857 21.5C163.99 21.7 164.124 22.0667 164.257 22.6C165.057 30.8 166.49 43.7667 168.557 61.5L169.857 72.9C170.057 74.3667 169.224 75.6667 167.357 76.8C165.557 77.9333 163.657 78.5 161.657 78.5C160.457 78.5 159.424 78.2667 158.557 77.8C157.757 77.2667 157.324 76.4667 157.257 75.4C156.39 66.1333 155.39 56.5667 154.257 46.7C152.457 50.5667 150.657 54.1333 148.857 57.4C148.59 57.9333 148.09 58.4667 147.357 59C146.49 59.8 145.39 60.4667 144.057 61C142.79 61.4667 141.557 61.7 140.357 61.7C138.29 61.7 136.924 61 136.257 59.6C135.057 56.9333 133.857 54.0667 132.657 51L132.157 54C131.29 59.5333 130.124 66.6667 128.657 75.4C128.457 76.8 127.324 78.0333 125.257 79.1C123.257 80.1 121.29 80.6 119.357 80.6C118.29 80.6 117.457 80.4 116.857 80C116.257 79.6 116.024 78.9667 116.157 78.1C119.69 54.7667 122.457 37.5667 124.457 26.5C124.724 25.1 125.857 23.8667 127.857 22.8C129.857 21.7333 131.757 21.2333 133.557 21.3C134.624 21.1667 135.524 21.2667 136.257 21.6C137.057 21.8667 137.524 22.3667 137.657 23.1C139.324 30.6333 141.39 37.5333 143.857 43.8C146.724 37.3333 149.457 30.6667 152.057 23.8C152.457 22.6667 153.49 21.7 155.157 20.9C156.89 20.1 158.59 19.7 160.257 19.7C162.257 19.7 163.457 20.3 163.857 21.5ZM215.726 68.9C216.726 69.2333 217.226 69.8333 217.226 70.7C217.226 71.7667 216.592 72.9333 215.326 74.2C213.926 75.6 212.126 76.3 209.926 76.3C208.859 76.3 207.959 76.1667 207.226 75.9C203.692 74.7667 200.492 74.2 197.626 74.2C192.626 74.2 187.526 75.8 182.326 79C181.459 79.6 180.392 80.1 179.126 80.5C177.926 80.8333 176.792 81 175.726 81C174.726 81 173.926 80.8333 173.326 80.5C172.726 80.1 172.426 79.5 172.426 78.7C172.426 78.2333 172.492 77.8333 172.626 77.5C174.559 72.1 176.092 67.2333 177.226 62.9C178.426 58.5667 179.226 54.1667 179.626 49.7C180.226 43.7 180.526 39.3 180.526 36.5C180.526 29.1 179.092 23.4333 176.226 19.5C175.892 19.1 175.726 18.5667 175.726 17.9C175.726 16.5667 176.659 15.3333 178.526 14.2C180.392 13 182.226 12.4 184.026 12.4C185.226 12.4 186.092 12.6667 186.626 13.2C187.492 13.5333 188.059 14.0667 188.326 14.8C189.992 19.2 192.292 22.9333 195.226 26C198.159 29 201.626 30.5 205.626 30.5C206.359 30.5 207.459 30.3667 208.926 30.1C209.859 29.9667 210.459 29.9 210.726 29.9C211.859 29.9 212.692 30.1667 213.226 30.7C213.826 31.1667 214.126 31.8333 214.126 32.7C214.126 33.6333 213.726 34.5667 212.926 35.5C212.192 36.4333 211.192 37.1 209.926 37.5C207.192 38.4333 204.459 38.9 201.726 38.9C198.459 38.9 195.326 38.2333 192.326 36.9C192.192 40.6333 192.026 43.4333 191.826 45.3L191.126 51.6C193.726 51.1333 196.326 50.7333 198.926 50.4L200.326 50.3C202.992 50.3 204.326 51.2 204.326 53C204.326 54.2 203.659 55.2667 202.326 56.2C200.992 57.1333 199.626 57.7333 198.226 58C196.159 58.4 193.326 58.8333 189.726 59.3C188.992 62.5667 188.192 65.6333 187.326 68.5C191.726 66.9 196.192 66.1 200.726 66.1C205.726 66.1 210.726 67.0333 215.726 68.9ZM240.173 43.9C242.773 41.8333 244.873 40 246.473 38.4C248.139 36.8 249.406 35.2 250.273 33.6C246.673 32.6667 241.339 31.1333 234.273 29L233.773 49.3C235.773 47.6333 236.939 46.6333 237.273 46.3L240.173 43.9ZM256.273 57.9C256.806 56.8333 257.939 55.9333 259.673 55.2C261.406 54.4 263.073 54 264.673 54C266.873 54 267.973 54.7 267.973 56.1C267.973 56.5 267.873 56.9667 267.673 57.5C264.939 63.9 262.873 70.1 261.473 76.1C261.139 77.4333 260.173 78.6667 258.573 79.8C257.906 80.6667 256.873 81.4 255.473 82C254.139 82.6 252.806 82.9 251.473 82.9C250.339 82.9 249.406 82.6667 248.673 82.2C248.006 81.7333 247.639 81 247.573 80C247.306 75.6667 245.873 71.7 243.273 68.1C240.739 64.5 237.473 62.1667 233.473 61.1L232.973 75.6C232.906 76.8667 231.839 78.0333 229.773 79.1C227.773 80.1667 225.839 80.7 223.973 80.7C222.973 80.7 222.173 80.5333 221.573 80.2C220.973 79.8 220.673 79.2 220.673 78.4L220.973 64.6C220.106 64 219.673 63.3 219.673 62.5C219.673 61.5667 220.173 60.6667 221.173 59.8C221.506 47.6667 221.906 35.5667 222.373 23.5C222.439 22.1 223.373 20.9 225.173 19.9C227.039 18.8333 228.906 18.3 230.773 18.3C232.173 18.3 233.173 18.6333 233.773 19.3C241.039 21.3 248.573 23.5 256.373 25.9C257.573 25.6333 258.406 25.5 258.873 25.5C260.006 25.5 260.873 25.7667 261.473 26.3C262.139 26.7667 262.473 27.5 262.473 28.5C262.473 31.2333 261.573 33.7667 259.773 36.1C257.973 38.3667 255.473 40.9 252.273 43.7L250.273 45.5C247.073 48.6333 243.973 51.4 240.973 53.8C246.439 55.3333 250.839 58.3667 254.173 62.9C254.439 62.2333 255.139 60.5667 256.273 57.9Z" fill="white"/>
</svg>
